HIERARCHY
ROOT Hips
{
	OFFSET 0.000000 71.427986 0.000000
	CHANNELS 6 Xposition Yposition Zposition Xrotation Yrotation Zrotation
	JOINT Pelvis
	{
		OFFSET 0.000000 0.000000 0.000000
		CHANNELS 3 Xrotation Yrotation Zrotation
		JOINT LeftUpLeg
		{
			OFFSET 6.797100 -2.508499 -1.318700
			CHANNELS 3 Xrotation Yrotation Zrotation
			JOINT LeftLeg
			{
				OFFSET 0.069008 -29.241863 0.690200
				CHANNELS 3 Xrotation Yrotation Zrotation
				JOINT LeftFoot
				{
					OFFSET -0.069008 -29.568123 -0.266800
					CHANNELS 3 Xrotation Yrotation Zrotation
					JOINT LeftToeBase
					{
						OFFSET 3.145500 -8.631000 16.059900
						CHANNELS 3 Xrotation Yrotation Zrotation
						End Site
						{
							OFFSET 0.000000 18.501587 0.000000
						}
					}
				}
			}
			JOINT Left_ShortSleeve
			{
				OFFSET 0.265923 -10.480953 1.153800
				CHANNELS 3 Xrotation Yrotation Zrotation
				End Site
				{
					OFFSET 1.725763 19.823879 0.000000
				}
			}
		}
		JOINT RightUpLeg
		{
			OFFSET -6.797100 -2.508499 -1.318700
			CHANNELS 3 Xrotation Yrotation Zrotation
			JOINT RightLeg
			{
				OFFSET -0.082453 -29.241932 0.688000
				CHANNELS 3 Xrotation Yrotation Zrotation
				JOINT RightFoot
				{
					OFFSET 0.082453 -29.568058 -0.264600
					CHANNELS 3 Xrotation Yrotation Zrotation
					JOINT RightToeBase
					{
						OFFSET -3.115300 -8.682800 16.113400
						CHANNELS 3 Xrotation Yrotation Zrotation
						End Site
						{
							OFFSET 0.000000 18.567114 0.000000
						}
					}
				}
			}
			JOINT Right_ShortSleeve
			{
				OFFSET -0.265923 -10.480953 1.153800
				CHANNELS 3 Xrotation Yrotation Zrotation
				End Site
				{
					OFFSET -1.725766 19.823910 0.000000
				}
			}
		}
	}
	JOINT Spine
	{
		OFFSET 0.000000 13.368103 0.470500
		CHANNELS 3 Xrotation Yrotation Zrotation
		JOINT Spine1
		{
			OFFSET 0.147000 13.837402 0.538800
			CHANNELS 3 Xrotation Yrotation Zrotation
			JOINT Spine2
			{
				OFFSET 0.168000 16.242897 -1.435500
				CHANNELS 3 Xrotation Yrotation Zrotation
				JOINT Neck
				{
					OFFSET 0.217200 18.631500 -1.679100
					CHANNELS 3 Xrotation Yrotation Zrotation
					JOINT Head
					{
						OFFSET 0.000000 6.599396 1.385900
						CHANNELS 3 Xrotation Yrotation Zrotation
						JOINT Hat
						{
							OFFSET -0.532200 27.220596 -10.096100
							CHANNELS 3 Xrotation Yrotation Zrotation
							End Site
							{
								OFFSET 0.000000 22.029861 0.000000
							}
						}
						JOINT HairD
						{
							OFFSET -10.777400 17.437393 -1.325900
							CHANNELS 3 Xrotation Yrotation Zrotation
							JOINT HairD1
							{
								OFFSET -3.290299 -11.051193 1.062200
								CHANNELS 3 Xrotation Yrotation Zrotation
								End Site
								{
									OFFSET 0.000000 11.579437 0.000000
								}
							}
						}
						JOINT HairB
						{
							OFFSET -10.777400 17.437393 1.467900
							CHANNELS 3 Xrotation Yrotation Zrotation
							JOINT HairB1
							{
								OFFSET -1.561200 -12.956299 3.590200
								CHANNELS 3 Xrotation Yrotation Zrotation
								End Site
								{
									OFFSET 0.000000 13.534866 0.000000
								}
							}
						}
						JOINT HairA
						{
							OFFSET 9.713100 17.437393 1.467900
							CHANNELS 3 Xrotation Yrotation Zrotation
							JOINT HairA1
							{
								OFFSET 1.561200 -12.956299 3.590200
								CHANNELS 3 Xrotation Yrotation Zrotation
								End Site
								{
									OFFSET 0.000000 13.534866 0.000000
								}
							}
						}
						JOINT HairC
						{
							OFFSET 9.713100 17.437393 -1.325900
							CHANNELS 3 Xrotation Yrotation Zrotation
							JOINT HairC1
							{
								OFFSET 3.290300 -11.051193 1.062200
								CHANNELS 3 Xrotation Yrotation Zrotation
								End Site
								{
									OFFSET 0.000000 11.579437 0.000000
								}
							}
						}
					}
				}
				JOINT LeftShoulder
				{
					OFFSET 5.101800 15.108002 -2.763700
					CHANNELS 3 Xrotation Yrotation Zrotation
					JOINT LeftArm
					{
						OFFSET 9.825497 2.506317 -1.597400
						CHANNELS 3 Xrotation Yrotation Zrotation
						JOINT LeftForeArm
						{
							OFFSET 21.966244 0.000000 0.000000
							CHANNELS 3 Xrotation Yrotation Zrotation
							JOINT LeftHand
							{
								OFFSET 33.879036 0.000000 0.000000
								CHANNELS 3 Xrotation Yrotation Zrotation
								JOINT LeftHandThumb1
								{
									OFFSET 6.715286 -2.359680 3.363841
									CHANNELS 3 Xrotation Yrotation Zrotation
									JOINT LeftHandThumb2
									{
										OFFSET 2.507072 -1.447464 1.447461
										CHANNELS 3 Xrotation Yrotation Zrotation
										JOINT LeftHandThumb3
										{
											OFFSET 2.898338 -1.673355 1.673357
											CHANNELS 3 Xrotation Yrotation Zrotation
											End Site
											{
												OFFSET -0.295959 3.727692 -0.131651
											}
										}
									}
								}
								JOINT LeftHandIndex1
								{
									OFFSET 14.190811 -0.254547 3.840278
									CHANNELS 3 Xrotation Yrotation Zrotation
									JOINT LeftHandIndex2
									{
										OFFSET 3.551727 0.000000 -0.000000
										CHANNELS 3 Xrotation Yrotation Zrotation
										JOINT LeftHandIndex3
										{
											OFFSET 2.894196 0.000000 0.000000
											CHANNELS 3 Xrotation Yrotation Zrotation
											End Site
											{
												OFFSET -1.000603 2.690872 0.366626
											}
										}
									}
								}
								JOINT LeftHandMiddle1
								{
									OFFSET 13.776489 0.000000 0.000000
									CHANNELS 3 Xrotation Yrotation Zrotation
									JOINT LeftHandMiddle2
									{
										OFFSET 3.438232 0.000000 0.000000
										CHANNELS 3 Xrotation Yrotation Zrotation
										JOINT LeftHandMiddle3
										{
											OFFSET 3.691551 0.000000 0.000000
											CHANNELS 3 Xrotation Yrotation Zrotation
											End Site
											{
												OFFSET -1.082298 3.499527 0.457670
											}
										}
									}
								}
								JOINT LeftHandRing1
								{
									OFFSET 13.966164 -0.268127 -3.067488
									CHANNELS 3 Xrotation Yrotation Zrotation
									JOINT LeftHandRing2
									{
										OFFSET 3.162567 0.000000 0.000000
										CHANNELS 3 Xrotation Yrotation Zrotation
										JOINT LeftHandRing3
										{
											OFFSET 3.324348 0.000000 0.000000
											CHANNELS 3 Xrotation Yrotation Zrotation
											End Site
											{
												OFFSET -0.861900 3.184998 0.405154
											}
										}
									}
								}
								JOINT LeftHandPinky1
								{
									OFFSET 13.131393 -0.168503 -5.746925
									CHANNELS 3 Xrotation Yrotation Zrotation
									JOINT LeftHandPinky2
									{
										OFFSET 2.849182 0.000000 0.000000
										CHANNELS 3 Xrotation Yrotation Zrotation
										JOINT LeftHandPinky3
										{
											OFFSET 2.805038 0.000000 0.000000
											CHANNELS 3 Xrotation Yrotation Zrotation
											End Site
											{
												OFFSET -0.882500 2.642609 0.325652
											}
										}
									}
								}
							}
							JOINT Left_Sleeve
							{
								OFFSET 6.592125 -0.646545 0.805568
								CHANNELS 3 Xrotation Yrotation Zrotation
								End Site
								{
									OFFSET -0.000179 20.275787 -0.000000
								}
							}
						}
					}
				}
				JOINT RightShoulder
				{
					OFFSET -5.731700 15.108002 -2.763700
					CHANNELS 3 Xrotation Yrotation Zrotation
					JOINT RightArm
					{
						OFFSET -9.825497 2.506317 -1.597400
						CHANNELS 3 Xrotation Yrotation Zrotation
						JOINT RightForeArm
						{
							OFFSET -21.966242 0.000000 0.000000
							CHANNELS 3 Xrotation Yrotation Zrotation
							JOINT RightHand
							{
								OFFSET -33.879032 0.000000 0.000000
								CHANNELS 3 Xrotation Yrotation Zrotation
								JOINT RightHandThumb1
								{
									OFFSET -6.715286 -2.359680 3.363841
									CHANNELS 3 Xrotation Yrotation Zrotation
									JOINT RightHandThumb2
									{
										OFFSET -2.507072 -1.447464 1.447461
										CHANNELS 3 Xrotation Yrotation Zrotation
										JOINT RightHandThumb3
										{
											OFFSET -2.898338 -1.673355 1.673357
											CHANNELS 3 Xrotation Yrotation Zrotation
											End Site
											{
												OFFSET 0.295959 3.727692 -0.131651
											}
										}
									}
								}
								JOINT RightHandIndex1
								{
									OFFSET -14.190811 -0.254547 3.840278
									CHANNELS 3 Xrotation Yrotation Zrotation
									JOINT RightHandIndex2
									{
										OFFSET -3.551727 0.000000 -0.000000
										CHANNELS 3 Xrotation Yrotation Zrotation
										JOINT RightHandIndex3
										{
											OFFSET -2.894196 0.000000 0.000000
											CHANNELS 3 Xrotation Yrotation Zrotation
											End Site
											{
												OFFSET 1.000603 2.690872 0.366626
											}
										}
									}
								}
								JOINT RightHandMiddle1
								{
									OFFSET -13.776489 0.000000 0.000000
									CHANNELS 3 Xrotation Yrotation Zrotation
									JOINT RightHandMiddle2
									{
										OFFSET -3.438232 0.000000 0.000000
										CHANNELS 3 Xrotation Yrotation Zrotation
										JOINT RightHandMiddle3
										{
											OFFSET -3.691551 0.000000 0.000000
											CHANNELS 3 Xrotation Yrotation Zrotation
											End Site
											{
												OFFSET 1.082298 3.499527 0.457670
											}
										}
									}
								}
								JOINT RightHandRing1
								{
									OFFSET -13.966164 -0.268127 -3.067488
									CHANNELS 3 Xrotation Yrotation Zrotation
									JOINT RightHandRing2
									{
										OFFSET -3.162567 0.000000 0.000000
										CHANNELS 3 Xrotation Yrotation Zrotation
										JOINT RightHandRing3
										{
											OFFSET -3.324348 0.000000 0.000000
											CHANNELS 3 Xrotation Yrotation Zrotation
											End Site
											{
												OFFSET 0.861900 3.184998 0.405154
											}
										}
									}
								}
								JOINT RightHandPinky1
								{
									OFFSET -13.131393 -0.168503 -5.746925
									CHANNELS 3 Xrotation Yrotation Zrotation
									JOINT RightHandPinky2
									{
										OFFSET -2.849182 0.000000 0.000000
										CHANNELS 3 Xrotation Yrotation Zrotation
										JOINT RightHandPinky3
										{
											OFFSET -2.805038 0.000000 0.000000
											CHANNELS 3 Xrotation Yrotation Zrotation
											End Site
											{
												OFFSET 0.882500 2.642609 0.325652
											}
										}
									}
								}
							}
							JOINT Right_Sleeve
							{
								OFFSET -6.592125 -0.646545 0.805568
								CHANNELS 3 Xrotation Yrotation Zrotation
								End Site
								{
									OFFSET 0.000179 20.275787 -0.000000
								}
							}
						}
					}
				}
				JOINT Bind_Right_JacketString
				{
					OFFSET -3.534800 11.969597 7.200700
					CHANNELS 3 Xrotation Yrotation Zrotation
					JOINT Bind_Right_JacketString1
					{
						OFFSET -0.319900 -6.102600 2.794100
						CHANNELS 3 Xrotation Yrotation Zrotation
						End Site
						{
							OFFSET 0.000000 6.719452 0.000000
						}
					}
				}
				JOINT Bind_Left_JacketString
				{
					OFFSET 2.904800 11.969597 7.200700
					CHANNELS 3 Xrotation Yrotation Zrotation
					JOINT Bind_Left_JacketString1
					{
						OFFSET 0.364800 -5.904503 3.186800
						CHANNELS 3 Xrotation Yrotation Zrotation
						End Site
						{
							OFFSET 0.000000 6.719513 0.000000
						}
					}
				}
				JOINT HairE
				{
					OFFSET 5.915200 17.612701 -11.592200
					CHANNELS 3 Xrotation Yrotation Zrotation
					JOINT HairE1
					{
						OFFSET 0.289200 -7.171898 -1.284500
						CHANNELS 3 Xrotation Yrotation Zrotation
						End Site
						{
							OFFSET 0.000000 7.291756 0.000000
						}
					}
				}
				JOINT HairF
				{
					OFFSET -0.864800 17.612701 -11.592200
					CHANNELS 3 Xrotation Yrotation Zrotation
					JOINT HairF1
					{
						OFFSET 0.000000 -14.087097 -2.127501
						CHANNELS 3 Xrotation Yrotation Zrotation
						End Site
						{
							OFFSET 0.000000 14.246841 0.000000
						}
					}
				}
				JOINT HairG
				{
					OFFSET -8.087700 17.612701 -11.592200
					CHANNELS 3 Xrotation Yrotation Zrotation
					JOINT HairG1
					{
						OFFSET -0.293600 -6.081398 -0.910100
						CHANNELS 3 Xrotation Yrotation Zrotation
						End Site
						{
							OFFSET 0.000000 6.156120 0.000000
						}
					}
				}
			}
		}
	}
	JOINT Pouch
	{
		OFFSET 0.000000 4.394501 10.847300
		CHANNELS 3 Xrotation Yrotation Zrotation
		End Site
		{
			OFFSET 0.000000 21.880577 0.000000
		}
	}
	JOINT Bag
	{
		OFFSET -13.229000 4.813004 -0.593300
		CHANNELS 3 Xrotation Yrotation Zrotation
		End Site
		{
			OFFSET 0.000000 21.880577 0.000000
		}
	}
	JOINT OccupyGuyFacialAnim_Joint
	{
		OFFSET 1.000000 -70.206398 -1.655000
		CHANNELS 3 Xrotation Yrotation Zrotation
		End Site
		{
			OFFSET 0.000000 21.880577 0.000000
		}
	}
}
MOTION
Frames: 4
Frame Time: 0.033333
-7.907403 73.109879 0.218635 -3.350571 34.993976 0.199979 -0.000000 -0.000002 -0.000000 -24.199673 7.932869 13.764724 37.473877 -6.187731 -1.473033 11.932697 0.645503 -3.299093 0.000000 0.000000 0.000001 -0.000002 0.000001 -0.000001 -10.371831 7.255116 6.973294 34.992330 -2.527145 -0.158101 -1.306645 -0.072245 -2.574244 -0.000001 -0.000001 -0.000000 -0.000000 -0.000002 -0.000001 3.728932 2.098331 -3.200240 -2.042238 2.105489 3.056732 -1.951304 1.955114 2.931167 4.489573 -14.086815 1.242355 0.691363 -18.380982 -0.551538 0.000000 0.000000 0.000000 0.000000 0.000000 0.000000 0.000000 0.000000 0.000000 0.000000 0.000000 0.000000 0.000000 -0.000001 0.000000 0.000000 0.000000 0.000000 0.000000 -0.000001 0.000000 0.000000 0.000000 0.000000 0.000000 0.000000 0.000000 3.763458 -4.563795 3.160062 4.921078 10.648686 -80.682675 2.565959 -20.332409 0.939465 -1.537238 4.057186 8.920069 11.293534 4.533947 17.402414 2.141906 30.642759 -6.564967 0.000003 0.000001 -0.000003 0.916016 0.789105 -10.454187 -1.837048 1.881236 -22.167200 0.000003 0.000001 -0.000000 -2.204645 4.466403 -23.541231 -0.241726 4.181203 -37.904329 0.000001 0.000001 -0.000003 -3.541647 10.547912 -21.080902 2.882796 3.738193 -43.431926 -0.000003 -0.000000 0.000005 -3.697963 12.313941 -31.434645 8.522721 3.162147 -45.243009 -0.000000 -0.000002 0.000003 -0.000003 -0.000002 0.000001 -0.343859 1.236507 4.235063 3.785154 -3.755997 69.763013 1.471623 16.196545 -0.228478 -1.292644 -3.759796 9.360166 15.784391 -2.803347 -17.234861 -3.466147 -28.821513 7.385239 0.000000 -0.000001 0.000002 2.228806 -3.673590 5.643080 -2.187357 -2.398363 15.843227 -0.000000 0.000001 0.000000 -2.034233 -5.664593 10.840776 0.217370 -5.059321 24.189610 0.000000 -0.000000 -0.000001 -4.953815 -10.036414 8.017896 3.988420 -4.087691 30.496518 0.000002 -0.000001 -0.000003 -6.402175 -11.207357 20.551875 10.702410 -2.705388 32.102053 -0.000001 -0.000000 0.000002 0.000000 0.000002 -0.000001 0.000000 0.000001 0.000000 -0.000000 -0.000003 0.000000 0.000000 0.000001 0.000000 0.000000 0.000001 0.000000 0.000000 0.000001 0.000000 -0.000000 -0.000003 -0.000000 0.000000 0.000001 0.000000 0.000000 0.000001 0.000000 0.000000 0.000001 0.000000 -0.000000 -0.000003 -0.000000 -0.000000 -0.000002 -0.000000 -0.000000 -0.000002 -0.000000 -0.000000 -0.000002 -0.000000 
-8.031350 73.084175 0.270730 -3.895426 35.966195 0.364462 0.000000 -0.000001 -0.000000 -23.993842 8.794733 14.082741 36.985239 -6.176933 -1.557947 12.212435 -0.980727 -3.073013 0.000004 0.000003 -0.000001 -0.000002 0.000001 -0.000002 -9.930337 7.113566 7.402058 34.951546 -2.859128 -0.176417 -1.361814 -0.688087 -2.457050 0.000001 -0.000002 0.000000 0.000001 0.000002 -0.000000 4.105925 2.161394 -2.497138 -2.211394 2.108300 2.975575 -2.134629 1.983512 2.850468 4.469023 -14.536543 1.002185 0.795339 -18.603545 -0.528312 -0.000000 -0.000000 -0.000000 -0.000000 -0.000000 -0.000000 -0.000000 -0.000000 -0.000000 -0.000000 -0.000000 -0.000000 0.000000 -0.000000 -0.000000 -0.000000 -0.000000 -0.000000 0.000000 -0.000000 -0.000000 -0.000000 -0.000000 -0.000000 -0.000000 -0.000000 -0.000000 3.758159 -4.181221 2.933438 5.120304 11.195621 -80.556146 2.583725 -20.165707 1.006390 -1.530739 4.076409 8.553127 11.289006 4.490337 17.388818 2.115753 30.603513 -6.557799 -0.000002 0.000003 0.000001 0.918684 0.787165 -10.404913 -1.836684 1.880803 -22.117874 -0.000001 0.000001 0.000002 -2.202682 4.464887 -23.412495 -0.239207 4.179921 -37.775502 0.000005 0.000003 0.000003 -3.542662 10.549598 -20.951855 2.883100 3.735319 -43.302890 0.000002 0.000002 0.000001 -3.699935 12.319741 -31.305400 8.521266 3.156886 -45.113966 -0.000002 -0.000002 0.000002 0.000002 -0.000001 0.000000 -0.380095 1.685829 3.846852 3.631179 -3.681061 69.832319 1.277473 16.194336 -0.209806 -1.316919 -3.779438 9.722643 15.784244 -2.803395 -17.234871 -3.462541 -28.824512 7.385834 -0.000004 -0.000001 -0.000002 2.229540 -3.672308 5.647239 -2.187462 -2.397581 15.847482 -0.000003 0.000001 -0.000001 -2.034391 -5.663552 10.844936 0.216432 -5.058549 24.193802 0.000001 -0.000001 -0.000004 -4.953284 -10.035906 8.022165 3.988504 -4.087111 30.500664 -0.000001 -0.000004 0.000001 -6.403729 -11.206294 20.555917 10.701925 -2.704968 32.106161 0.000002 -0.000001 0.000000 -0.000002 0.000003 -0.000001 -0.000000 0.000000 -0.000000 -0.000000 -0.000003 -0.000000 -0.000000 0.000000 -0.000000 -0.000000 0.000000 -0.000000 -0.000000 0.000000 -0.000000 -0.000000 -0.000003 -0.000000 -0.000000 0.000000 -0.000000 -0.000000 0.000000 -0.000000 -0.000000 0.000000 -0.000000 -0.000000 -0.000003 -0.000000 0.000000 -0.000001 -0.000000 0.000000 -0.000001 -0.000000 0.000000 -0.000001 -0.000000 
-8.134286 73.054199 0.315232 -4.261297 37.182498 0.455858 0.000000 -0.000001 -0.000000 -24.176906 9.690265 14.222722 36.651133 -5.489238 -1.414952 12.629126 -2.006031 -2.907461 0.000002 0.000001 -0.000000 0.000001 0.000000 -0.000000 -9.638007 6.967835 7.826426 34.903052 -3.269713 -0.196361 -1.437406 -1.448493 -2.255387 -0.000000 -0.000001 -0.000000 -0.000000 -0.000002 -0.000002 4.330321 2.176161 -1.901573 -2.435352 2.081676 2.915891 -2.370780 1.978582 2.796513 4.609468 -15.162540 0.927867 0.817128 -18.834453 -0.680447 0.000000 0.000000 -0.000000 0.000000 0.000000 -0.000000 0.000000 0.000000 -0.000000 0.000000 0.000000 -0.000000 0.000000 -0.000001 0.000000 0.000000 0.000000 -0.000000 0.000000 -0.000001 0.000000 0.000000 0.000000 -0.000000 0.000000 0.000000 -0.000000 3.756489 -3.922752 2.718999 5.301017 11.631768 -80.446446 2.665445 -20.088179 1.078913 -1.518447 4.133192 8.143109 11.282766 4.428948 17.369632 2.075764 30.549657 -6.548193 0.000001 -0.000001 -0.000001 0.922310 0.785541 -10.335567 -1.836180 1.880377 -22.048344 0.000000 0.000002 -0.000003 -2.199869 4.462633 -23.231299 -0.236353 4.178236 -37.594177 0.000000 -0.000002 -0.000003 -3.543977 10.552442 -20.770197 2.883550 3.731892 -43.121440 0.000001 0.000000 0.000001 -3.703250 12.327848 -31.123406 8.519722 3.149378 -44.932492 0.000003 -0.000000 -0.000001 0.000001 -0.000001 -0.000001 -0.400326 2.005912 3.525655 3.490649 -3.417080 69.909657 0.970035 16.136143 -0.085879 -1.351453 -3.821015 9.487187 15.784260 -2.803353 -17.234831 -3.412655 -28.907160 7.382927 0.000000 -0.000001 0.000000 2.234897 -3.670587 5.744683 -2.186846 -2.398895 15.944716 -0.000002 0.000001 0.000000 -2.032310 -5.663830 10.942378 0.218765 -5.058050 24.291312 0.000001 -0.000001 -0.000004 -4.954416 -10.038712 8.119115 3.989307 -4.086048 30.597963 -0.000005 -0.000001 -0.000003 -6.406508 -11.210033 20.652651 10.702462 -2.701738 32.203488 -0.000000 0.000003 0.000001 0.000003 -0.000000 -0.000001 -0.000000 -0.000002 -0.000001 -0.000000 0.000002 -0.000000 -0.000000 -0.000002 -0.000000 -0.000000 -0.000002 -0.000000 -0.000000 -0.000002 -0.000001 -0.000000 0.000002 -0.000000 -0.000000 -0.000002 -0.000000 -0.000000 -0.000002 -0.000000 -0.000000 -0.000002 -0.000001 -0.000000 0.000002 -0.000000 0.000000 -0.000001 -0.000000 0.000000 -0.000001 -0.000000 0.000000 -0.000001 -0.000000 
-8.206379 73.030708 0.333524 -4.346867 38.570119 0.508841 -0.000000 -0.000001 0.000000 -24.506657 9.840542 13.615659 36.447129 -3.531145 -0.936255 13.004223 -2.154032 -3.036739 0.000003 -0.000000 0.000000 0.000000 0.000001 -0.000000 -9.579599 6.840920 8.112444 34.868618 -3.794518 -0.219798 -1.526132 -2.239672 -1.964151 -0.000000 -0.000002 0.000001 0.000001 -0.000003 -0.000001 4.309229 2.156949 -1.496166 -2.658166 2.057290 2.837295 -2.604937 1.966823 2.720965 4.941195 -15.892436 0.879293 0.915985 -19.090580 -0.790888 0.000000 0.000001 -0.000000 0.000000 0.000001 -0.000000 0.000000 0.000001 -0.000000 0.000000 0.000001 -0.000000 0.000000 0.000000 0.000000 0.000000 0.000001 -0.000000 0.000000 0.000000 0.000000 0.000000 0.000001 -0.000000 0.000000 0.000001 -0.000000 3.759427 -3.663277 2.532758 5.532338 11.948154 -80.358507 2.777404 -19.994440 1.166024 -1.516096 4.230572 7.775962 11.275106 4.350721 17.345322 2.025099 30.481215 -6.536183 0.000002 -0.000000 0.000002 0.926716 0.783304 -10.247414 -1.835432 1.880997 -21.959909 0.000001 0.000001 -0.000000 -2.196253 4.460162 -23.000932 -0.232780 4.176173 -37.363679 -0.000000 0.000002 0.000001 -3.545586 10.558053 -20.539048 2.884156 3.727071 -42.890736 -0.000002 -0.000002 0.000002 -3.707503 12.338105 -30.892013 8.517324 3.140892 -44.701887 -0.000002 -0.000001 -0.000001 0.000002 0.000001 0.000000 -0.414962 2.319096 3.190375 3.321861 -3.084973 70.023912 0.544011 16.052712 0.082368 -1.395846 -3.800222 9.025303 15.784354 -2.803310 -17.234840 -3.297840 -29.097053 7.376650 -0.000000 0.000000 0.000001 2.246407 -3.668532 5.968609 -2.185282 -2.401200 16.168207 -0.000005 0.000000 0.000000 -2.027139 -5.666006 11.166231 0.225034 -5.058047 24.515294 0.000002 -0.000000 -0.000001 -4.957881 -10.044407 8.341741 3.991043 -4.082171 30.821526 0.000001 -0.000001 -0.000001 -6.410903 -11.220447 20.874989 10.703344 -2.694921 32.427173 0.000002 0.000000 -0.000001 0.000001 -0.000001 -0.000001 -0.000000 0.000001 -0.000000 -0.000000 0.000001 0.000000 -0.000000 0.000001 -0.000000 -0.000000 0.000001 -0.000000 -0.000000 0.000001 -0.000000 -0.000000 0.000001 0.000000 -0.000000 0.000001 -0.000000 -0.000000 0.000001 -0.000000 -0.000000 0.000001 -0.000000 -0.000000 0.000001 0.000000 -0.000000 -0.000001 0.000000 -0.000000 -0.000001 0.000000 -0.000000 -0.000001 0.000000 
